# xmcd CD database file
#
# Track frame offsets:
#	150
#	31104
#	47398
#	75532
#	97065
#	123412
#	142140
#	162588
#	184665
#	201563
#	225203
#	255819
#
# Disc length: 3622 seconds
#
# Revision: 0
# Processed by: cddbd v1.4PL0 Copyright (c) Steve Scherf et al.
# Submitted via: CDex 1.50
#
DISCID=960e240c
DTITLE=Ivan Kapec Trio - Lancun
DYEAR=2001
DGENRE=Jazz
TTITLE0=Emanation
TTITLE1=Lancun
TTITLE2=Mirabile
TTITLE3=No Matter
TTITLE4=Rakitje Lake
TTITLE5=Vals
TTITLE6=Holmes' Body
TTITLE7=Landfall
TTITLE8=Gift (rmx by Markos)
TTITLE9=Your Hand in my Dream
TTITLE10=Mirabile (Blacksoul Illegal Jazz Club)
TTITLE11=Lancun (rmx by Andrija)
EXTD=YEAR: 2001
EXTT0=
EXTT1=
EXTT2=
EXTT3=
EXTT4=
EXTT5=
EXTT6=
EXTT7=
EXTT8=
EXTT9=
EXTT10=
EXTT11=
PLAYORDER=
